<svg xmlns="http://www.w3.org/2000/svg" viewBox="0 0 1920 1080"><defs><style>.cls-1{fill:#71b4d6;}.cls-2{fill:#659b5e;}.cls-3{fill:#6d4d2c;}.cls-4{fill:#3d2b19;}.cls-5{fill:#a9c991;}</style></defs><title>login_title</title><g id="letters"><path class="cls-1" d="M601.83,564.08q12.28,0,14.42,6.76a30.38,30.38,0,0,1,1.07,8.9,27.29,27.29,0,0,1-1.16,8.81,8.33,8.33,0,0,1-3.65,4.72q-3.74,2.13-10.86,2.13l-11.39-.71v47.7q0,6.78-1.69,10.06a8.36,8.36,0,0,1-5.16,4.36,31.38,31.38,0,0,1-9,1.07,27,27,0,0,1-8.81-1.16,8.2,8.2,0,0,1-4.72-3.73,13.46,13.46,0,0,1-1.69-4.72,53.5,53.5,0,0,1-.27-6.23V594.87h-6.41c-3.08-.24-5.28-1-6.58-2.14q-3.39-3.37-3.38-13,0-14.6,10.5-14.6h5.87v-9.43q0-13.71,9.79-24.83T597,519.75a51.37,51.37,0,0,1,6.15.27,14.29,14.29,0,0,1,4.71,1.69q4.82,2.31,4.81,13.71,0,8.54-3,12.28-2.49,2.85-7.83,3.2h-5c-4.4,0-6.59,1.49-6.59,4.45v9.79Zm24.74-28.66a51.06,51.06,0,0,1,.27-6.14,14.26,14.26,0,0,1,1.69-4.72q2.31-4.81,13.71-4.81,10.85,0,13.52,4.81a14.25,14.25,0,0,1,1.7,4.81,56.36,56.36,0,0,1,.26,6.23V618q0,6.4,1.07,8.1t4.72,1.69a28.13,28.13,0,0,1,4.89.27,10.51,10.51,0,0,1,3.21,1.51q3.38,2.31,3.38,12.64,0,11.21-3.38,13.7-4.82,3.21-22.25,1.07-13.71-1.77-18-9.08-4.82-8.71-4.81-27.77Z"/><path class="cls-1" d="M730,657.35a37.83,37.83,0,0,1-29.82-13.62q-11.83-13.62-11.83-33.2V579.38a53.66,53.66,0,0,1,.26-6.23,16.94,16.94,0,0,1,1.52-4.63q2.49-4.8,13.88-4.8,12.46,0,14.6,6.76,1.06,2.85,1.07,9.08v31.15q0,7.31,4.18,11.39t11.21,4.1a15.59,15.59,0,0,0,11.39-4.27,15,15,0,0,0,4.36-11.22v-31.5a51.37,51.37,0,0,1,.27-6.15,14.29,14.29,0,0,1,1.69-4.71q2.31-4.64,13.71-4.63,11.22,0,13.7,4.8a16.78,16.78,0,0,1,1.52,4.72,51.17,51.17,0,0,1,.27,6.14v63a49.09,49.09,0,0,1-.27,6A12.7,12.7,0,0,1,780,652.9q-2.67,4.62-13.71,4.62-10.86,0-13.35-4.27a14.1,14.1,0,0,1-1.78-7.3,17.87,17.87,0,0,1-3.2,3.57,45.25,45.25,0,0,1-4.81,3.91A23.78,23.78,0,0,1,730,657.35Z"/><path class="cls-1" d="M892,599.59c0,7.29-1.81,12.7-5.43,16.19s-7.63,5.26-12,5.26H832.34q0,5,5.87,8.36A23.32,23.32,0,0,0,850,632.78q10.32,0,16.2-2.13l2-.71a17.84,17.84,0,0,1,7.11-2q5.7,0,9.79,8a19.53,19.53,0,0,1,2.32,8.19q0,15.84-37.91,15.84A57.28,57.28,0,0,1,826,655.48q-10.24-4.54-15.93-12a51.15,51.15,0,0,1-11.22-32.21q0-22.44,14.51-35.87t36.22-13.44q24.75,0,36.32,17.44A36.23,36.23,0,0,1,892,599.59Zm-37.56,5.25q6.76,0,6.76-5.7a8,8,0,0,0-3.11-6.58q-3.12-2.5-8.9-2.5t-11.48,4.72q-5.7,4.72-5.7,10.06Z"/><path class="cls-1" d="M961,563.9q17.79,0,29.64,13.61t11.83,33.2V642a51.53,51.53,0,0,1-.26,6.14,14.59,14.59,0,0,1-1.52,4.54q-2.49,4.8-13.88,4.8-12.65,0-14.6-6.58a29.1,29.1,0,0,1-1.06-9.08V610.53q0-7.29-4.19-11.39t-11.21-4.09q-7,0-11.39,4.27A15,15,0,0,0,940,610.53V642a51.06,51.06,0,0,1-.27,6.14,12.64,12.64,0,0,1-1.69,4.54q-2.33,4.8-13.71,4.8-11.21,0-13.7-4.8a16.27,16.27,0,0,1-1.52-4.72,53.78,53.78,0,0,1-.26-6.14v-63a51.64,51.64,0,0,1,.26-6,12.64,12.64,0,0,1,1.69-4.54q2.49-4.46,13.71-4.45,10.86,0,13.35,4.09a14.23,14.23,0,0,1,1.78,7.3,17.9,17.9,0,0,1,3.2-3.56,31.53,31.53,0,0,1,4.81-3.74A23.29,23.29,0,0,1,961,563.9Z"/><path class="cls-2" d="M1074.77,595.4l-11.57-.71v24.56c0,3.21.5,5.52,1.51,7s2.91,2.13,5.7,2.13a57.21,57.21,0,0,1,6.41.27,12.64,12.64,0,0,1,4.71,1.69q4.1,2.33,4.1,11.93,0,11.21-5,13.7a16.32,16.32,0,0,1-4.71,1.52,51.88,51.88,0,0,1-6,.26q-18.53,0-28.13-8.36t-9.61-28.3V594.69a46.43,46.43,0,0,1-7.3.54,8.18,8.18,0,0,1-6.5-3q-2.58-3-2.58-10.33a45,45,0,0,1,.89-10.59,9.64,9.64,0,0,1,2.49-4.71,11,11,0,0,1,7.12-2.32l5.88.72V546.63a48.8,48.8,0,0,1,.27-6,11,11,0,0,1,1.69-4.27q2.31-4.45,13.7-4.45,12.1,0,14.42,6.58a33.45,33.45,0,0,1,.89,9.08V565q7.83-.72,11.84-.72a50.15,50.15,0,0,1,6,.27,14.34,14.34,0,0,1,4.72,1.69q4.62,2.31,4.62,13.71,0,11.21-4.8,13.7a16.68,16.68,0,0,1-4.72,1.52A53.78,53.78,0,0,1,1074.77,595.4Z"/><path class="cls-2" d="M1169.29,565a12.05,12.05,0,0,1,5.6,3.64c1.49,1.73,2.23,4.48,2.23,8.28a28.2,28.2,0,0,1-3.38,12.46q-3.39,6.76-9.79,6.77a13.86,13.86,0,0,1-6.14-1.43,17.88,17.88,0,0,0-7.75-1.42,14.07,14.07,0,0,0-9,3.38,10.21,10.21,0,0,0-4.18,8.19v37.38a51.06,51.06,0,0,1-.27,6.14,14.19,14.19,0,0,1-1.69,4.72q-2.67,4.62-13.88,4.62-8.55,0-12.28-3-2.85-2.49-3.21-7.66V579.38a51.17,51.17,0,0,1,.27-6.14,14.71,14.71,0,0,1,1.51-4.54q2.49-4.8,13.89-4.8,10.68,0,13.35,4.09a10.3,10.3,0,0,1,2,5.88,29.32,29.32,0,0,1,2.58-3q1.68-1.79,7.21-4.81t9.7-3a47.68,47.68,0,0,1,7,.44A42.73,42.73,0,0,1,1169.29,565Z"/><path class="cls-2" d="M1277.33,599.59c0,7.29-1.81,12.7-5.43,16.19s-7.62,5.26-12,5.26H1217.7q0,5,5.88,8.36a23.28,23.28,0,0,0,11.74,3.38q10.32,0,16.2-2.13l2-.71a17.88,17.88,0,0,1,7.12-2q5.7,0,9.79,8a19.64,19.64,0,0,1,2.31,8.19q0,15.84-37.91,15.84a57.31,57.31,0,0,1-23.41-4.54q-10.23-4.54-15.93-12a51.2,51.2,0,0,1-11.21-32.21q0-22.44,14.5-35.87T1235,561.94q24.73,0,36.31,17.44A36.23,36.23,0,0,1,1277.33,599.59Zm-37.56,5.25q6.76,0,6.77-5.7a8,8,0,0,0-3.12-6.58q-3.11-2.5-8.9-2.5T1223,594.78q-5.7,4.72-5.69,10.06Z"/><path class="cls-2" d="M1384.66,599.59c0,7.29-1.81,12.7-5.42,16.19s-7.63,5.26-12,5.26H1325q0,5,5.88,8.36a23.29,23.29,0,0,0,11.75,3.38q10.32,0,16.19-2.13l2-.71a17.88,17.88,0,0,1,7.12-2q5.7,0,9.79,8a19.68,19.68,0,0,1,2.32,8.19q0,15.84-37.92,15.84a57.26,57.26,0,0,1-23.4-4.54q-10.24-4.54-15.94-12a51.2,51.2,0,0,1-11.21-32.21q0-22.44,14.51-35.87t36.22-13.44q24.73,0,36.31,17.44A36.23,36.23,0,0,1,1384.66,599.59Zm-37.55,5.25q6.75,0,6.76-5.7a8,8,0,0,0-3.11-6.58q-3.12-2.5-8.9-2.5t-11.49,4.72q-5.68,4.72-5.69,10.06Z"/></g><g id="tree"><path class="cls-3" d="M1017.25,379.35l-31.63,31.82V368.89h-17v42.19l-25.13-25.92-12.05,12,37.18,38.36v63.31h17V435.34l43.72-44Z"/><path class="cls-4" d="M1017.25,379.35l-31.63,31.82V368.89H977.1v130h8.52V435.34l43.72-44Z"/><path class="cls-2" d="M977.1,381.32a87.16,87.16,0,1,1,0-174.32C1025.24,207,1025.24,381.32,977.1,381.32Z"/><path class="cls-5" d="M977.1,207V381.32a87.16,87.16,0,0,0,0-174.32Z"/><circle class="cls-2" cx="1063.82" cy="347.5" r="62.13"/><path class="cls-5" d="M1063.82,285.36V409.63a62.14,62.14,0,0,0,0-124.27Z"/><path class="cls-2" d="M905.66,408.66a50.92,50.92,0,1,1,0-101.83C933.78,306.83,933.78,408.66,905.66,408.66Z"/><path class="cls-5" d="M905.66,306.83V408.66a50.92,50.92,0,1,0,0-101.83Z"/><path class="cls-3" d="M919.64,360.18,907.4,372l31.31,32.71,12-12.05Z"/></g></svg>