<svg xmlns="http://www.w3.org/2000/svg" viewBox="0 0 1920 1080"><defs><style>.cls-1{opacity:0.1;}.cls-2{fill:#3e3f3f;}.cls-3{fill:#71b4d6;}.cls-4{fill:#659b5e;}.cls-5{fill:#6d4d2c;}.cls-6{fill:#3d2b19;}.cls-7{fill:#a9c991;}</style></defs><title>login</title><g id="cities"><g id="ferris_wheel" data-name="ferris wheel"><g class="cls-1"><path class="cls-2" d="M1810.08,690.72c-84.63,0-153.82,69.19-153.82,153.82a153.5,153.5,0,0,0,153.82,153.82c84.63,0,153.82-69.19,153.82-153.82S1894.71,690.72,1810.08,690.72Zm128.66,93.78L1821,835.39l48-120.08A141.53,141.53,0,0,1,1938.74,784.5Zm-128.66-82.34c16.58,0,32.6,3.43,48,8.58l-47.47,118.94-50.89-118.37A145.55,145.55,0,0,1,1810.08,702.16Zm-61.18,13.72,50.89,118.37-120.08-47.46A148.72,148.72,0,0,1,1748.9,715.88Zm-81.2,128.66a145.23,145.23,0,0,1,8-47.46l121.23,48-119.51,51.47A138.27,138.27,0,0,1,1667.7,844.54Zm14.29,62.9,117.8-50.89L1752.9,974.92A140.5,140.5,0,0,1,1682,907.44Zm127.52,80.06c-16-.57-31.45-2.86-46.32-8L1810.65,860l50.9,117.8A142.68,142.68,0,0,1,1809.51,987.5Zm62.9-14.87-50.89-117.79,118.37,46.89C1926.73,933.18,1902.15,957.76,1872.41,972.63Zm-45.17-127.52,116.08-50.32a144.81,144.81,0,0,1,9.15,49.75,139,139,0,0,1-8,46.89Z"/></g><g class="cls-1"><path class="cls-2" d="M1997.07,857.69a20,20,0,0,0,0-40,19.23,19.23,0,0,0-9.72,2.86,137.32,137.32,0,0,0-6.86-30.31h2.28a20,20,0,1,0,0-40c-6.29,0-12,3.43-16,8a178.29,178.29,0,0,0-22.3-32c8.58-2.28,15.44-9.72,15.44-19.44a20.26,20.26,0,0,0-20-20,19.69,19.69,0,0,0-19.45,16,152.07,152.07,0,0,0-30.3-19.44,20,20,0,0,0,8-16,20.26,20.26,0,0,0-20-20c-10.87,0-18.87,10.87-18.87,21.73a7.25,7.25,0,0,0,.57,3.43,191.83,191.83,0,0,0-31.45-6.29,16.73,16.73,0,0,0,2.29-9.15,20,20,0,0,0-40,0c0,3.44,1.14,6.29,2.29,9.15-13.15,1.15-25.73,4-38.31,7.44v-2.86a20,20,0,1,0-40,0,20.89,20.89,0,0,0,8,16,197.14,197.14,0,0,0-26.87,17.73,19.57,19.57,0,0,0-18.87-14.87,20.26,20.26,0,0,0-20,20,19.72,19.72,0,0,0,14.3,18.87c-6.29,9.72-13.15,20.59-19.44,32a19.26,19.26,0,0,0-15.44-7.43,20,20,0,1,0,0,40h2.28c-4,13.72-6.86,28-7.43,42.31a16.83,16.83,0,0,0-9.15-2.28,20.26,20.26,0,0,0-20,20A19.17,19.17,0,0,0,1621.38,872a18.8,18.8,0,0,0,10.86-3.43c1.15,10.29,4,20.58,6.87,30.88-1.15,0-2.29-.57-3.43-.57a20,20,0,1,0,0,40,19.18,19.18,0,0,0,16.58-9.15c6.29,12,14.29,22.88,22.87,33.17-9.15,1.72-16.58,9.72-16.58,19.44a20.26,20.26,0,0,0,20,20A19.29,19.29,0,0,0,1698,985.21a158.17,158.17,0,0,0,28,18.3l-25.73,61.19h-29.16a5.72,5.72,0,1,0,0,11.43h277.33a5.72,5.72,0,1,0,0-11.43H1921l-19.45-52.61c0-.57,0-.57-.57-1.15l-4-10.29a175.07,175.07,0,0,0,24-16c2.28,8.58,9.72,15.44,19.44,15.44a20.26,20.26,0,0,0,20-20,19.73,19.73,0,0,0-14.29-18.88,178.37,178.37,0,0,0,22.3-32,19.24,19.24,0,0,0,15.44,7.44,20.26,20.26,0,0,0,20-20c0-10.86-10.29-18.87-21.16-18.87h-1.71c4-13.72,6.86-27.45,7.43-42.31C1991.35,856.55,1994.21,857.69,1997.07,857.69Zm.57-28a8.58,8.58,0,1,1-8.58,8.57A8.79,8.79,0,0,1,1997.64,829.68Zm-376.26,31.45a8.58,8.58,0,1,1,8.58-8.58A8.81,8.81,0,0,1,1621.38,861.13Zm362-97.79a8.58,8.58,0,1,1-8.57,8.58A8.8,8.8,0,0,1,1983.34,763.34ZM1941,699.87a8.58,8.58,0,1,1-8.58,8.58A8.8,8.8,0,0,1,1941,699.87ZM1879.27,661a8.58,8.58,0,1,1-8.57,8.57A8.42,8.42,0,0,1,1879.27,661Zm-68-12a8.58,8.58,0,1,1-8.58,8.58A8.42,8.42,0,0,1,1811.23,649Zm-74.91,13.72a8.58,8.58,0,1,1-8.58,8.58A8.8,8.8,0,0,1,1736.32,662.7Zm-65.76,46.89a8.58,8.58,0,1,1,8.57,8.58A8.42,8.42,0,0,1,1670.56,709.59Zm-34.31,72c-4.58-.57-8.58-4-8.58-8.58a8.58,8.58,0,1,1,8.58,8.58Zm-.57,145.82a8.58,8.58,0,1,1,8.57-8.58A8.8,8.8,0,0,1,1635.68,927.46Zm42.31,62.9a8.58,8.58,0,1,1,8.58-8.58A8.42,8.42,0,0,1,1678,990.36Zm219.58,42.88,11.44,30.88H1712.3l12.58-30.3a19.86,19.86,0,0,0,34.88-13.16,12.63,12.63,0,0,0-.57-4.57,197.79,197.79,0,0,0,32,6.29,19.8,19.8,0,0,0-2.86,10.29,20,20,0,1,0,40,0,19.23,19.23,0,0,0-2.86-9.72,168.26,168.26,0,0,0,38.31-7.43c0,1.14-.57,2.29-.57,3.43a20.26,20.26,0,0,0,20,20C1889,1039,1893.57,1036.68,1897.57,1033.24Zm-166.4-11.43c.57-5.15,4-8.58,8.58-8.58a8.58,8.58,0,1,1-8.58,8.58Zm68,12c.57-5.15,4-8.58,8.57-8.58a8.58,8.58,0,1,1-8.57,8.58Zm74.91-14.87a8.79,8.79,0,0,1,8.57-8.58,7.68,7.68,0,0,1,7.44,4.58l.57,1.71c0,.57.57,1.72.57,2.29a8.58,8.58,0,1,1-17.15,0Zm74.33-38.31a8.58,8.58,0,1,1-8.57-8.58C1945,972.63,1948.46,976.06,1948.46,980.64Zm-138.38,32.59c-92.63-.57-168.11-76.05-168.11-168.69,0-92.06,75.48-167.54,168.11-167.54s168.12,75.48,168.12,168.11S1902.72,1013.23,1810.08,1013.23Zm172.69-104.07a8.58,8.58,0,1,1-8.57,8.58A8.79,8.79,0,0,1,1982.77,909.16Z"/></g></g><g id="pantheon"><g class="cls-1"><path class="cls-2" d="M1582.1,1040.84h-10.33v-12.67a4.93,4.93,0,0,0-4.93-4.93H1552l-2.86-131.54h17.74a4.93,4.93,0,0,0,4.93-4.93V874.1h10.32a4.93,4.93,0,0,0,2.2-9.34L1450.05,798a4.91,4.91,0,0,0-4.39,0l-134.24,66.78a4.93,4.93,0,0,0,2.19,9.34h10.33v12.67a4.93,4.93,0,0,0,4.92,4.93h17.75l-2.88,131.54h-14.87a4.92,4.92,0,0,0-4.92,4.93v12.67h-10.33a4.93,4.93,0,0,0-4.93,4.93v25.11a4.93,4.93,0,0,0,4.93,4.93H1582.1a4.93,4.93,0,0,0,4.92-4.93v-25.11A4.93,4.93,0,0,0,1582.1,1040.84Zm-40-17.6h-16.85l2.86-131.54h11.13Zm-47.37,0-2.85-131.54h26.37l-2.86,131.54Zm-57.22,0-2.86-131.54H1461l-2.86,131.54Zm-57.22,0-2.85-131.54h26.37L1401,1023.24Zm33.38-131.54h11.13l2.86,131.54h-16.85Zm57.22,0H1482l2.86,131.54H1468Zm-23.05-83.8,113.27,56.34H1334.58Zm-114.06,66.2h228.12v7.74H1333.79Zm22.67,17.6h11.13l2.86,131.54h-16.86Zm-22.67,141.39h228.12v7.75H1333.79ZM1577.17,1066H1318.54V1050.7h258.63Z"/><path class="cls-2" d="M1447.85,822.81a16.08,16.08,0,1,0,16.08,16.08h0A16.1,16.1,0,0,0,1447.85,822.81Zm0,22.3a6.22,6.22,0,1,1,6.22-6.23h0A6.23,6.23,0,0,1,1447.85,845.11Z"/></g></g><g id="gate"><g class="cls-1"><g id="outline"><path class="cls-2" d="M579.54,799l-106.15,5.95a1043.41,1043.41,0,0,1-116.51,0L250.73,799c-3.13-.18-5.84,1.74-6.06,4.29a3.88,3.88,0,0,0,.59,2.39l11.36,18.49a5.87,5.87,0,0,0,4.67,2.54l14.48.87L285,842.63a5.79,5.79,0,0,0,4.56,2.53l28.93,2.14v21h-17c-3.13,0-5.68,2.07-5.68,4.63v18.49c0,2.55,2.55,4.62,5.68,4.62h17v115.56h-5.68c-3.14,0-5.68,2.07-5.68,4.63v55.47c0,2.55,2.54,4.62,5.68,4.62h45.46c3.14,0,5.68-2.07,5.68-4.62v-55.47c0-2.56-2.54-4.63-5.68-4.63h-5.68V896h125v115.56H472c-3.14,0-5.68,2.07-5.68,4.63v55.47c0,2.55,2.54,4.62,5.68,4.62h45.46c3.14,0,5.69-2.07,5.69-4.62v-55.47c0-2.56-2.55-4.63-5.69-4.63h-5.68V896h17c3.14,0,5.68-2.07,5.68-4.62V872.92c0-2.56-2.54-4.63-5.68-4.63h-17v-21l28.93-2.14a5.81,5.81,0,0,0,4.57-2.53l9.26-15.08,14.49-.87a5.86,5.86,0,0,0,4.66-2.54L585,805.65c1.4-2.29.26-5.06-2.55-6.21a6.83,6.83,0,0,0-2.92-.47ZM329.9,848.14l7.55.56,3.81.28v19.31H329.9Zm102.28,20.15V851.42q22.77-.36,45.47-1.71v18.58Zm-11.36,0H409.45V851.54l5.69,0,5.68,0Zm-22.73,0H352.63V849.71q22.67,1.35,45.46,1.71Zm-45.46,198.78h-34.1v-46.23h34.1Zm-11.37-55.48H329.9V896h11.36Zm170.48,55.48H477.65v-46.23h34.09Zm-11.36-55.48H489V896h11.37Zm22.73-124.81H307.17v-9.24H523.11Zm-22.73-18.49H489V849l3.81-.28,7.56-.56Zm36.11-32.1-44.7,3.3a1040.49,1040.49,0,0,1-153.31,0l-44.69-3.3L289,828.35l62.78,3.78c21,1.27,42.21,1.9,63.39,1.9s42.35-.64,63.38-1.9l62.79-3.78Zm28.44-18.54-87.25,5.26a1044.1,1044.1,0,0,1-125.09,0l-87.25-5.26-5.47-8.9,96.23,5.39a1056.93,1056.93,0,0,0,118.07,0l96.23-5.39Z"/></g></g></g><g id="eiffel"><g id="outline-2" data-name="outline" class="cls-1"><path class="cls-2" d="M268.36,1034.64a20.78,20.78,0,0,0-20.76,20.76v6.92H233.76V1047.2a20.72,20.72,0,0,0,13.84-19.48v-13.84a20.77,20.77,0,0,0-41.53,0v13.84a20.72,20.72,0,0,0,13.85,19.48v15.12h-3.1l-24.1-38.27c-9.09-14.44-17.6-29.46-25.47-44.77h4.22a6.92,6.92,0,0,0,6.92-6.93V944.67a6.92,6.92,0,0,0-6.92-6.92H148c-6.66-15.88-12.63-32.13-17.85-48.49a6.88,6.88,0,0,0,6.68-6.87V854.71a6.92,6.92,0,0,0-6.92-6.92H118.56a588.5,588.5,0,0,1-16.2-131.5,6.91,6.91,0,0,0,6.83-6.9V681.7a6.92,6.92,0,0,0-6.92-6.92H88.43V660.94H74.59v13.84H60.75a6.92,6.92,0,0,0-6.92,6.92v27.69a6.91,6.91,0,0,0,6.83,6.9,588.5,588.5,0,0,1-16.2,131.5H33.07a6.92,6.92,0,0,0-6.92,6.92v27.68a6.88,6.88,0,0,0,6.68,6.87C27.61,905.62,21.64,921.87,15,937.75H-8.45a6.92,6.92,0,0,0-6.92,6.92v27.68a6.92,6.92,0,0,0,6.92,6.93h4.22c-7.87,15.31-16.38,30.33-25.47,44.77l-24.09,38.27H-84.58V1047.2a20.69,20.69,0,0,0,13.84-19.48v-13.84A20.75,20.75,0,0,0-91.5,993.12a20.76,20.76,0,0,0-20.76,20.76v13.84a20.72,20.72,0,0,0,13.84,19.48v15.12H-126.1v13.84H289.12V1055.4A20.78,20.78,0,0,0,268.36,1034.64Zm-48.44-20.76a6.92,6.92,0,1,1,13.84,0v13.84a6.92,6.92,0,1,1-13.84,0Zm-318.34,0A6.92,6.92,0,0,1-91.5,1007a6.91,6.91,0,0,1,6.92,6.92v13.84a6.92,6.92,0,0,1-6.92,6.92,6.92,6.92,0,0,1-6.92-6.92Zm178-124.57h3.86l16.15,48.44H63.43Zm34.6,48.44L98,889.31h17.61c5.07,16.31,10.89,32.54,17.37,48.44ZM67.67,688.62H95.35v13.84H67.67Zm6.89,27.69h13.9a602.65,602.65,0,0,0,15.81,131.48H58.75A602.65,602.65,0,0,0,74.56,716.31ZM40,861.63h83v13.84H40Zm7.39,27.68H65L48.84,937.75H30C36.49,921.85,42.31,905.62,47.38,889.31ZM-1.53,951.59H164.55v13.84H-1.53Zm112.84,27.69L120.6,1004a75.38,75.38,0,0,0-78.18,0l9.29-24.76ZM-18,1031.42c10.55-16.76,20.41-34.29,29.31-52.14h25.6l-17,45.47a75.59,75.59,0,0,0-14.13,37.57H-37.44Zm37.6,30.9a62.29,62.29,0,0,1,123.8,0Zm137.68,0a75.59,75.59,0,0,0-14.13-37.57L126.1,979.28h25.6c8.91,17.85,18.75,35.37,29.31,52.14l19.45,30.9Zm104.15,0v-6.92a6.92,6.92,0,1,1,13.84,0v6.92Z"/></g></g></g><g id="letters"><path class="cls-3" d="M601.83,564.08q12.28,0,14.42,6.76a30.38,30.38,0,0,1,1.07,8.9,27.29,27.29,0,0,1-1.16,8.81,8.33,8.33,0,0,1-3.65,4.72q-3.74,2.13-10.86,2.13l-11.39-.71v47.7q0,6.78-1.69,10.06a8.36,8.36,0,0,1-5.16,4.36,31.38,31.38,0,0,1-9,1.07,27,27,0,0,1-8.81-1.16,8.2,8.2,0,0,1-4.72-3.73,13.46,13.46,0,0,1-1.69-4.72,53.5,53.5,0,0,1-.27-6.23V594.87h-6.41c-3.08-.24-5.28-1-6.58-2.14q-3.39-3.37-3.38-13,0-14.6,10.5-14.6h5.87v-9.43q0-13.71,9.79-24.83T597,519.75a51.37,51.37,0,0,1,6.15.27,14.29,14.29,0,0,1,4.71,1.69q4.82,2.31,4.81,13.71,0,8.54-3,12.28-2.49,2.85-7.83,3.2h-5c-4.4,0-6.59,1.49-6.59,4.45v9.79Zm24.74-28.66a51.06,51.06,0,0,1,.27-6.14,14.26,14.26,0,0,1,1.69-4.72q2.31-4.81,13.71-4.81,10.85,0,13.52,4.81a14.25,14.25,0,0,1,1.7,4.81,56.36,56.36,0,0,1,.26,6.23V618q0,6.4,1.07,8.1t4.72,1.69a28.13,28.13,0,0,1,4.89.27,10.51,10.51,0,0,1,3.21,1.51q3.38,2.31,3.38,12.64,0,11.21-3.38,13.7-4.82,3.21-22.25,1.07-13.71-1.77-18-9.08-4.82-8.71-4.81-27.77Z"/><path class="cls-3" d="M730,657.35a37.83,37.83,0,0,1-29.82-13.62q-11.83-13.62-11.83-33.2V579.38a53.66,53.66,0,0,1,.26-6.23,16.94,16.94,0,0,1,1.52-4.63q2.49-4.8,13.88-4.8,12.46,0,14.6,6.76,1.06,2.85,1.07,9.08v31.15q0,7.31,4.18,11.39t11.21,4.1a15.59,15.59,0,0,0,11.39-4.27,15,15,0,0,0,4.36-11.22v-31.5a51.37,51.37,0,0,1,.27-6.15,14.29,14.29,0,0,1,1.69-4.71q2.31-4.64,13.71-4.63,11.22,0,13.7,4.8a16.78,16.78,0,0,1,1.52,4.72,51.17,51.17,0,0,1,.27,6.14v63a49.09,49.09,0,0,1-.27,6A12.7,12.7,0,0,1,780,652.9q-2.67,4.62-13.71,4.62-10.86,0-13.35-4.27a14.1,14.1,0,0,1-1.78-7.3,17.87,17.87,0,0,1-3.2,3.57,45.25,45.25,0,0,1-4.81,3.91A23.78,23.78,0,0,1,730,657.35Z"/><path class="cls-3" d="M892,599.59c0,7.29-1.81,12.7-5.43,16.19s-7.63,5.26-12,5.26H832.34q0,5,5.87,8.36A23.32,23.32,0,0,0,850,632.78q10.32,0,16.2-2.13l2-.71a17.84,17.84,0,0,1,7.11-2q5.7,0,9.79,8a19.53,19.53,0,0,1,2.32,8.19q0,15.84-37.91,15.84A57.28,57.28,0,0,1,826,655.48q-10.24-4.54-15.93-12a51.15,51.15,0,0,1-11.22-32.21q0-22.44,14.51-35.87t36.22-13.44q24.75,0,36.32,17.44A36.23,36.23,0,0,1,892,599.59Zm-37.56,5.25q6.76,0,6.76-5.7a8,8,0,0,0-3.11-6.58q-3.12-2.5-8.9-2.5t-11.48,4.72q-5.7,4.72-5.7,10.06Z"/><path class="cls-3" d="M961,563.9q17.79,0,29.64,13.61t11.83,33.2V642a51.53,51.53,0,0,1-.26,6.14,14.59,14.59,0,0,1-1.52,4.54q-2.49,4.8-13.88,4.8-12.65,0-14.6-6.58a29.1,29.1,0,0,1-1.06-9.08V610.53q0-7.29-4.19-11.39t-11.21-4.09q-7,0-11.39,4.27A15,15,0,0,0,940,610.53V642a51.06,51.06,0,0,1-.27,6.14,12.64,12.64,0,0,1-1.69,4.54q-2.33,4.8-13.71,4.8-11.21,0-13.7-4.8a16.27,16.27,0,0,1-1.52-4.72,53.78,53.78,0,0,1-.26-6.14v-63a51.64,51.64,0,0,1,.26-6,12.64,12.64,0,0,1,1.69-4.54q2.49-4.46,13.71-4.45,10.86,0,13.35,4.09a14.23,14.23,0,0,1,1.78,7.3,17.9,17.9,0,0,1,3.2-3.56,31.53,31.53,0,0,1,4.81-3.74A23.29,23.29,0,0,1,961,563.9Z"/><path class="cls-4" d="M1074.77,595.4l-11.57-.71v24.56c0,3.21.5,5.52,1.51,7s2.91,2.13,5.7,2.13a57.21,57.21,0,0,1,6.41.27,12.64,12.64,0,0,1,4.71,1.69q4.1,2.33,4.1,11.93,0,11.21-5,13.7a16.32,16.32,0,0,1-4.71,1.52,51.88,51.88,0,0,1-6,.26q-18.53,0-28.13-8.36t-9.61-28.3V594.69a46.43,46.43,0,0,1-7.3.54,8.18,8.18,0,0,1-6.5-3q-2.58-3-2.58-10.33a45,45,0,0,1,.89-10.59,9.64,9.64,0,0,1,2.49-4.71,11,11,0,0,1,7.12-2.32l5.88.72V546.63a48.8,48.8,0,0,1,.27-6,11,11,0,0,1,1.69-4.27q2.31-4.45,13.7-4.45,12.1,0,14.42,6.58a33.45,33.45,0,0,1,.89,9.08V565q7.83-.72,11.84-.72a50.15,50.15,0,0,1,6,.27,14.34,14.34,0,0,1,4.72,1.69q4.62,2.31,4.62,13.71,0,11.21-4.8,13.7a16.68,16.68,0,0,1-4.72,1.52A53.78,53.78,0,0,1,1074.77,595.4Z"/><path class="cls-4" d="M1169.29,565a12.05,12.05,0,0,1,5.6,3.64c1.49,1.73,2.23,4.48,2.23,8.28a28.2,28.2,0,0,1-3.38,12.46q-3.39,6.76-9.79,6.77a13.86,13.86,0,0,1-6.14-1.43,17.88,17.88,0,0,0-7.75-1.42,14.07,14.07,0,0,0-9,3.38,10.21,10.21,0,0,0-4.18,8.19v37.38a51.06,51.06,0,0,1-.27,6.14,14.19,14.19,0,0,1-1.69,4.72q-2.67,4.62-13.88,4.62-8.55,0-12.28-3-2.85-2.49-3.21-7.66V579.38a51.17,51.17,0,0,1,.27-6.14,14.71,14.71,0,0,1,1.51-4.54q2.49-4.8,13.89-4.8,10.68,0,13.35,4.09a10.3,10.3,0,0,1,2,5.88,29.32,29.32,0,0,1,2.58-3q1.68-1.79,7.21-4.81t9.7-3a47.68,47.68,0,0,1,7,.44A42.73,42.73,0,0,1,1169.29,565Z"/><path class="cls-4" d="M1277.33,599.59c0,7.29-1.81,12.7-5.43,16.19s-7.62,5.26-12,5.26H1217.7q0,5,5.88,8.36a23.28,23.28,0,0,0,11.74,3.38q10.32,0,16.2-2.13l2-.71a17.88,17.88,0,0,1,7.12-2q5.7,0,9.79,8a19.64,19.64,0,0,1,2.31,8.19q0,15.84-37.91,15.84a57.31,57.31,0,0,1-23.41-4.54q-10.23-4.54-15.93-12a51.2,51.2,0,0,1-11.21-32.21q0-22.44,14.5-35.87T1235,561.94q24.73,0,36.31,17.44A36.23,36.23,0,0,1,1277.33,599.59Zm-37.56,5.25q6.76,0,6.77-5.7a8,8,0,0,0-3.12-6.58q-3.11-2.5-8.9-2.5T1223,594.78q-5.7,4.72-5.69,10.06Z"/><path class="cls-4" d="M1384.66,599.59c0,7.29-1.81,12.7-5.42,16.19s-7.63,5.26-12,5.26H1325q0,5,5.88,8.36a23.29,23.29,0,0,0,11.75,3.38q10.32,0,16.19-2.13l2-.71a17.88,17.88,0,0,1,7.12-2q5.7,0,9.79,8a19.68,19.68,0,0,1,2.32,8.19q0,15.84-37.92,15.84a57.26,57.26,0,0,1-23.4-4.54q-10.24-4.54-15.94-12a51.2,51.2,0,0,1-11.21-32.21q0-22.44,14.51-35.87t36.22-13.44q24.73,0,36.31,17.44A36.23,36.23,0,0,1,1384.66,599.59Zm-37.55,5.25q6.75,0,6.76-5.7a8,8,0,0,0-3.11-6.58q-3.12-2.5-8.9-2.5t-11.49,4.72q-5.68,4.72-5.69,10.06Z"/></g><g id="tree"><path class="cls-5" d="M1017.25,379.35l-31.63,31.82V368.89h-17v42.19l-25.13-25.92-12.05,12,37.18,38.36v63.31h17V435.34l43.72-44Z"/><path class="cls-6" d="M1017.25,379.35l-31.63,31.82V368.89H977.1v130h8.52V435.34l43.72-44Z"/><path class="cls-4" d="M977.1,381.32a87.16,87.16,0,1,1,0-174.32C1025.24,207,1025.24,381.32,977.1,381.32Z"/><path class="cls-7" d="M977.1,207V381.32a87.16,87.16,0,0,0,0-174.32Z"/><circle class="cls-4" cx="1063.82" cy="347.5" r="62.13"/><path class="cls-7" d="M1063.82,285.36V409.63a62.14,62.14,0,0,0,0-124.27Z"/><path class="cls-4" d="M905.66,408.66a50.92,50.92,0,1,1,0-101.83C933.78,306.83,933.78,408.66,905.66,408.66Z"/><path class="cls-7" d="M905.66,306.83V408.66a50.92,50.92,0,1,0,0-101.83Z"/><path class="cls-5" d="M919.64,360.18,907.4,372l31.31,32.71,12-12.05Z"/></g></svg>