<svg id="cities" xmlns="http://www.w3.org/2000/svg" viewBox="0 0 1920 1080"><defs><style>.cls-1{opacity:0.1;}.cls-2{fill:#3e3f3f;}</style></defs><title>login_bg</title><g id="ferris_wheel" data-name="ferris wheel"><g class="cls-1"><path class="cls-2" d="M1810.08,690.72c-84.63,0-153.82,69.19-153.82,153.82a153.5,153.5,0,0,0,153.82,153.82c84.63,0,153.82-69.19,153.82-153.82S1894.71,690.72,1810.08,690.72Zm128.66,93.78L1821,835.39l48-120.08A141.53,141.53,0,0,1,1938.74,784.5Zm-128.66-82.34c16.58,0,32.6,3.43,48,8.58l-47.47,118.94-50.89-118.37A145.55,145.55,0,0,1,1810.08,702.16Zm-61.18,13.72,50.89,118.37-120.08-47.46A148.72,148.72,0,0,1,1748.9,715.88Zm-81.2,128.66a145.23,145.23,0,0,1,8-47.46l121.23,48-119.51,51.47A138.27,138.27,0,0,1,1667.7,844.54Zm14.29,62.9,117.8-50.89L1752.9,974.92A140.5,140.5,0,0,1,1682,907.44Zm127.52,80.06c-16-.57-31.45-2.86-46.32-8L1810.65,860l50.9,117.8A142.68,142.68,0,0,1,1809.51,987.5Zm62.9-14.87-50.89-117.79,118.37,46.89C1926.73,933.18,1902.15,957.76,1872.41,972.63Zm-45.17-127.52,116.08-50.32a144.81,144.81,0,0,1,9.15,49.75,139,139,0,0,1-8,46.89Z"/></g><g class="cls-1"><path class="cls-2" d="M1997.07,857.69a20,20,0,0,0,0-40,19.23,19.23,0,0,0-9.72,2.86,137.32,137.32,0,0,0-6.86-30.31h2.28a20,20,0,1,0,0-40c-6.29,0-12,3.43-16,8a178.29,178.29,0,0,0-22.3-32c8.58-2.28,15.44-9.72,15.44-19.44a20.26,20.26,0,0,0-20-20,19.69,19.69,0,0,0-19.45,16,152.07,152.07,0,0,0-30.3-19.44,20,20,0,0,0,8-16,20.26,20.26,0,0,0-20-20c-10.87,0-18.87,10.87-18.87,21.73a7.25,7.25,0,0,0,.57,3.43,191.83,191.83,0,0,0-31.45-6.29,16.73,16.73,0,0,0,2.29-9.15,20,20,0,0,0-40,0c0,3.44,1.14,6.29,2.29,9.15-13.15,1.15-25.73,4-38.31,7.44v-2.86a20,20,0,1,0-40,0,20.89,20.89,0,0,0,8,16,197.14,197.14,0,0,0-26.87,17.73,19.57,19.57,0,0,0-18.87-14.87,20.26,20.26,0,0,0-20,20,19.72,19.72,0,0,0,14.3,18.87c-6.29,9.72-13.15,20.59-19.44,32a19.26,19.26,0,0,0-15.44-7.43,20,20,0,1,0,0,40h2.28c-4,13.72-6.86,28-7.43,42.31a16.83,16.83,0,0,0-9.15-2.28,20.26,20.26,0,0,0-20,20A19.17,19.17,0,0,0,1621.38,872a18.8,18.8,0,0,0,10.86-3.43c1.15,10.29,4,20.58,6.87,30.88-1.15,0-2.29-.57-3.43-.57a20,20,0,1,0,0,40,19.18,19.18,0,0,0,16.58-9.15c6.29,12,14.29,22.88,22.87,33.17-9.15,1.72-16.58,9.72-16.58,19.44a20.26,20.26,0,0,0,20,20A19.29,19.29,0,0,0,1698,985.21a158.17,158.17,0,0,0,28,18.3l-25.73,61.19h-29.16a5.72,5.72,0,1,0,0,11.43h277.33a5.72,5.72,0,1,0,0-11.43H1921l-19.45-52.61c0-.57,0-.57-.57-1.15l-4-10.29a175.07,175.07,0,0,0,24-16c2.28,8.58,9.72,15.44,19.44,15.44a20.26,20.26,0,0,0,20-20,19.73,19.73,0,0,0-14.29-18.88,178.37,178.37,0,0,0,22.3-32,19.24,19.24,0,0,0,15.44,7.44,20.26,20.26,0,0,0,20-20c0-10.86-10.29-18.87-21.16-18.87h-1.71c4-13.72,6.86-27.45,7.43-42.31C1991.35,856.55,1994.21,857.69,1997.07,857.69Zm.57-28a8.58,8.58,0,1,1-8.58,8.57A8.79,8.79,0,0,1,1997.64,829.68Zm-376.26,31.45a8.58,8.58,0,1,1,8.58-8.58A8.81,8.81,0,0,1,1621.38,861.13Zm362-97.79a8.58,8.58,0,1,1-8.57,8.58A8.8,8.8,0,0,1,1983.34,763.34ZM1941,699.87a8.58,8.58,0,1,1-8.58,8.58A8.8,8.8,0,0,1,1941,699.87ZM1879.27,661a8.58,8.58,0,1,1-8.57,8.57A8.42,8.42,0,0,1,1879.27,661Zm-68-12a8.58,8.58,0,1,1-8.58,8.58A8.42,8.42,0,0,1,1811.23,649Zm-74.91,13.72a8.58,8.58,0,1,1-8.58,8.58A8.8,8.8,0,0,1,1736.32,662.7Zm-65.76,46.89a8.58,8.58,0,1,1,8.57,8.58A8.42,8.42,0,0,1,1670.56,709.59Zm-34.31,72c-4.58-.57-8.58-4-8.58-8.58a8.58,8.58,0,1,1,8.58,8.58Zm-.57,145.82a8.58,8.58,0,1,1,8.57-8.58A8.8,8.8,0,0,1,1635.68,927.46Zm42.31,62.9a8.58,8.58,0,1,1,8.58-8.58A8.42,8.42,0,0,1,1678,990.36Zm219.58,42.88,11.44,30.88H1712.3l12.58-30.3a19.86,19.86,0,0,0,34.88-13.16,12.63,12.63,0,0,0-.57-4.57,197.79,197.79,0,0,0,32,6.29,19.8,19.8,0,0,0-2.86,10.29,20,20,0,1,0,40,0,19.23,19.23,0,0,0-2.86-9.72,168.26,168.26,0,0,0,38.31-7.43c0,1.14-.57,2.29-.57,3.43a20.26,20.26,0,0,0,20,20C1889,1039,1893.57,1036.68,1897.57,1033.24Zm-166.4-11.43c.57-5.15,4-8.58,8.58-8.58a8.58,8.58,0,1,1-8.58,8.58Zm68,12c.57-5.15,4-8.58,8.57-8.58a8.58,8.58,0,1,1-8.57,8.58Zm74.91-14.87a8.79,8.79,0,0,1,8.57-8.58,7.68,7.68,0,0,1,7.44,4.58l.57,1.71c0,.57.57,1.72.57,2.29a8.58,8.58,0,1,1-17.15,0Zm74.33-38.31a8.58,8.58,0,1,1-8.57-8.58C1945,972.63,1948.46,976.06,1948.46,980.64Zm-138.38,32.59c-92.63-.57-168.11-76.05-168.11-168.69,0-92.06,75.48-167.54,168.11-167.54s168.12,75.48,168.12,168.11S1902.72,1013.23,1810.08,1013.23Zm172.69-104.07a8.58,8.58,0,1,1-8.57,8.58A8.79,8.79,0,0,1,1982.77,909.16Z"/></g></g><g id="pantheon"><g class="cls-1"><path class="cls-2" d="M1582.1,1040.84h-10.33v-12.67a4.93,4.93,0,0,0-4.93-4.93H1552l-2.86-131.54h17.74a4.93,4.93,0,0,0,4.93-4.93V874.1h10.32a4.93,4.93,0,0,0,2.2-9.34L1450.05,798a4.91,4.91,0,0,0-4.39,0l-134.24,66.78a4.93,4.93,0,0,0,2.19,9.34h10.33v12.67a4.93,4.93,0,0,0,4.92,4.93h17.75l-2.88,131.54h-14.87a4.92,4.92,0,0,0-4.92,4.93v12.67h-10.33a4.93,4.93,0,0,0-4.93,4.93v25.11a4.93,4.93,0,0,0,4.93,4.93H1582.1a4.93,4.93,0,0,0,4.92-4.93v-25.11A4.93,4.93,0,0,0,1582.1,1040.84Zm-40-17.6h-16.85l2.86-131.54h11.13Zm-47.37,0-2.85-131.54h26.37l-2.86,131.54Zm-57.22,0-2.86-131.54H1461l-2.86,131.54Zm-57.22,0-2.85-131.54h26.37L1401,1023.24Zm33.38-131.54h11.13l2.86,131.54h-16.85Zm57.22,0H1482l2.86,131.54H1468Zm-23.05-83.8,113.27,56.34H1334.58Zm-114.06,66.2h228.12v7.74H1333.79Zm22.67,17.6h11.13l2.86,131.54h-16.86Zm-22.67,141.39h228.12v7.75H1333.79ZM1577.17,1066H1318.54V1050.7h258.63Z"/><path class="cls-2" d="M1447.85,822.81a16.08,16.08,0,1,0,16.08,16.08h0A16.1,16.1,0,0,0,1447.85,822.81Zm0,22.3a6.22,6.22,0,1,1,6.22-6.23h0A6.23,6.23,0,0,1,1447.85,845.11Z"/></g></g><g id="gate"><g class="cls-1"><g id="outline"><path class="cls-2" d="M579.54,799l-106.15,5.95a1043.41,1043.41,0,0,1-116.51,0L250.73,799c-3.13-.18-5.84,1.74-6.06,4.29a3.88,3.88,0,0,0,.59,2.39l11.36,18.49a5.87,5.87,0,0,0,4.67,2.54l14.48.87L285,842.63a5.79,5.79,0,0,0,4.56,2.53l28.93,2.14v21h-17c-3.13,0-5.68,2.07-5.68,4.63v18.49c0,2.55,2.55,4.62,5.68,4.62h17v115.56h-5.68c-3.14,0-5.68,2.07-5.68,4.63v55.47c0,2.55,2.54,4.62,5.68,4.62h45.46c3.14,0,5.68-2.07,5.68-4.62v-55.47c0-2.56-2.54-4.63-5.68-4.63h-5.68V896h125v115.56H472c-3.14,0-5.68,2.07-5.68,4.63v55.47c0,2.55,2.54,4.62,5.68,4.62h45.46c3.14,0,5.69-2.07,5.69-4.62v-55.47c0-2.56-2.55-4.63-5.69-4.63h-5.68V896h17c3.14,0,5.68-2.07,5.68-4.62V872.92c0-2.56-2.54-4.63-5.68-4.63h-17v-21l28.93-2.14a5.81,5.81,0,0,0,4.57-2.53l9.26-15.08,14.49-.87a5.86,5.86,0,0,0,4.66-2.54L585,805.65c1.4-2.29.26-5.06-2.55-6.21a6.83,6.83,0,0,0-2.92-.47ZM329.9,848.14l7.55.56,3.81.28v19.31H329.9Zm102.28,20.15V851.42q22.77-.36,45.47-1.71v18.58Zm-11.36,0H409.45V851.54l5.69,0,5.68,0Zm-22.73,0H352.63V849.71q22.67,1.35,45.46,1.71Zm-45.46,198.78h-34.1v-46.23h34.1Zm-11.37-55.48H329.9V896h11.36Zm170.48,55.48H477.65v-46.23h34.09Zm-11.36-55.48H489V896h11.37Zm22.73-124.81H307.17v-9.24H523.11Zm-22.73-18.49H489V849l3.81-.28,7.56-.56Zm36.11-32.1-44.7,3.3a1040.49,1040.49,0,0,1-153.31,0l-44.69-3.3L289,828.35l62.78,3.78c21,1.27,42.21,1.9,63.39,1.9s42.35-.64,63.38-1.9l62.79-3.78Zm28.44-18.54-87.25,5.26a1044.1,1044.1,0,0,1-125.09,0l-87.25-5.26-5.47-8.9,96.23,5.39a1056.93,1056.93,0,0,0,118.07,0l96.23-5.39Z"/></g></g></g><g id="eiffel"><g id="outline-2" data-name="outline" class="cls-1"><path class="cls-2" d="M268.36,1034.64a20.78,20.78,0,0,0-20.76,20.76v6.92H233.76V1047.2a20.72,20.72,0,0,0,13.84-19.48v-13.84a20.77,20.77,0,0,0-41.53,0v13.84a20.72,20.72,0,0,0,13.85,19.48v15.12h-3.1l-24.1-38.27c-9.09-14.44-17.6-29.46-25.47-44.77h4.22a6.92,6.92,0,0,0,6.92-6.93V944.67a6.92,6.92,0,0,0-6.92-6.92H148c-6.66-15.88-12.63-32.13-17.85-48.49a6.88,6.88,0,0,0,6.68-6.87V854.71a6.92,6.92,0,0,0-6.92-6.92H118.56a588.5,588.5,0,0,1-16.2-131.5,6.91,6.91,0,0,0,6.83-6.9V681.7a6.92,6.92,0,0,0-6.92-6.92H88.43V660.94H74.59v13.84H60.75a6.92,6.92,0,0,0-6.92,6.92v27.69a6.91,6.91,0,0,0,6.83,6.9,588.5,588.5,0,0,1-16.2,131.5H33.07a6.92,6.92,0,0,0-6.92,6.92v27.68a6.88,6.88,0,0,0,6.68,6.87C27.61,905.62,21.64,921.87,15,937.75H-8.45a6.92,6.92,0,0,0-6.92,6.92v27.68a6.92,6.92,0,0,0,6.92,6.93h4.22c-7.87,15.31-16.38,30.33-25.47,44.77l-24.09,38.27H-84.58V1047.2a20.69,20.69,0,0,0,13.84-19.48v-13.84A20.75,20.75,0,0,0-91.5,993.12a20.76,20.76,0,0,0-20.76,20.76v13.84a20.72,20.72,0,0,0,13.84,19.48v15.12H-126.1v13.84H289.12V1055.4A20.78,20.78,0,0,0,268.36,1034.64Zm-48.44-20.76a6.92,6.92,0,1,1,13.84,0v13.84a6.92,6.92,0,1,1-13.84,0Zm-318.34,0A6.92,6.92,0,0,1-91.5,1007a6.91,6.91,0,0,1,6.92,6.92v13.84a6.92,6.92,0,0,1-6.92,6.92,6.92,6.92,0,0,1-6.92-6.92Zm178-124.57h3.86l16.15,48.44H63.43Zm34.6,48.44L98,889.31h17.61c5.07,16.31,10.89,32.54,17.37,48.44ZM67.67,688.62H95.35v13.84H67.67Zm6.89,27.69h13.9a602.65,602.65,0,0,0,15.81,131.48H58.75A602.65,602.65,0,0,0,74.56,716.31ZM40,861.63h83v13.84H40Zm7.39,27.68H65L48.84,937.75H30C36.49,921.85,42.31,905.62,47.38,889.31ZM-1.53,951.59H164.55v13.84H-1.53Zm112.84,27.69L120.6,1004a75.38,75.38,0,0,0-78.18,0l9.29-24.76ZM-18,1031.42c10.55-16.76,20.41-34.29,29.31-52.14h25.6l-17,45.47a75.59,75.59,0,0,0-14.13,37.57H-37.44Zm37.6,30.9a62.29,62.29,0,0,1,123.8,0Zm137.68,0a75.59,75.59,0,0,0-14.13-37.57L126.1,979.28h25.6c8.91,17.85,18.75,35.37,29.31,52.14l19.45,30.9Zm104.15,0v-6.92a6.92,6.92,0,1,1,13.84,0v6.92Z"/></g></g></svg>