<svg xmlns="http://www.w3.org/2000/svg" viewBox="0 0 1020.56 159.68"><defs><style>.cls-1{fill:#71b4d6;}.cls-2{fill:#659b5e;}.cls-3{fill:#6d4d2c;}.cls-4{fill:#3d2b19;}.cls-5{fill:#a9c991;}</style></defs><title>title</title><g id="Layer_2" data-name="Layer 2"><g id="Layer_1-2" data-name="Layer 1"><path class="cls-1" d="M237.73,63.74q12.28,0,14.42,6.77a30.38,30.38,0,0,1,1.07,8.9,27.37,27.37,0,0,1-1.16,8.81,8.34,8.34,0,0,1-3.65,4.71q-3.74,2.14-10.86,2.14l-11.39-.71v47.7q0,6.76-1.69,10.06a8.36,8.36,0,0,1-5.16,4.36,31.38,31.38,0,0,1-9,1.07,27.29,27.29,0,0,1-8.81-1.16,8.22,8.22,0,0,1-4.72-3.74,13.42,13.42,0,0,1-1.69-4.71,53.7,53.7,0,0,1-.27-6.24V94.54h-6.41c-3.08-.24-5.28-1-6.58-2.14-2.26-2.25-3.38-6.59-3.38-13q0-14.59,10.5-14.6h5.87V55.37q0-13.69,9.79-24.83t28.3-11.12a51.37,51.37,0,0,1,6.15.27,14.07,14.07,0,0,1,4.71,1.69q4.82,2.31,4.81,13.7,0,8.55-3,12.29-2.49,2.84-7.83,3.2h-5c-4.4,0-6.59,1.48-6.59,4.45v9.79Zm24.74-28.66a51.17,51.17,0,0,1,.27-6.14,14.29,14.29,0,0,1,1.69-4.71q2.31-4.82,13.71-4.81,10.85,0,13.52,4.81a14.28,14.28,0,0,1,1.7,4.8,56.49,56.49,0,0,1,.26,6.23v82.42q0,6.41,1.07,8.09t4.72,1.7a28.47,28.47,0,0,1,4.89.26,10.83,10.83,0,0,1,3.21,1.52q3.38,2.31,3.38,12.63,0,11.22-3.38,13.71-4.81,3.21-22.25,1.07-13.71-1.78-18-9.08-4.81-8.72-4.81-27.77Z"/><path class="cls-1" d="M365.89,157a37.85,37.85,0,0,1-29.82-13.61q-11.83-13.62-11.83-33.2V79.05a53.54,53.54,0,0,1,.26-6.23A16.73,16.73,0,0,1,326,68.19q2.49-4.8,13.88-4.8,12.47,0,14.6,6.76c.71,1.9,1.07,4.92,1.07,9.08v31.15q0,7.29,4.18,11.39T371,125.86q7,0,11.39-4.27a15,15,0,0,0,4.36-11.21V78.87a51.17,51.17,0,0,1,.27-6.14A14.34,14.34,0,0,1,388.67,68q2.31-4.62,13.71-4.62,11.22,0,13.7,4.8a16.68,16.68,0,0,1,1.52,4.72,51.53,51.53,0,0,1,.26,6.14v63a49.44,49.44,0,0,1-.26,6,12.64,12.64,0,0,1-1.69,4.54q-2.67,4.63-13.71,4.63-10.86,0-13.35-4.27a14.13,14.13,0,0,1-1.78-7.3,17.9,17.9,0,0,1-3.2,3.56,45.43,45.43,0,0,1-4.81,3.92A23.77,23.77,0,0,1,365.89,157Z"/><path class="cls-1" d="M527.87,99.25q0,10.95-5.43,16.2t-12,5.25H468.24q0,5,5.87,8.37a23.42,23.42,0,0,0,11.75,3.38q10.32,0,16.2-2.14l2-.71a18,18,0,0,1,7.11-2q5.7,0,9.79,8a19.6,19.6,0,0,1,2.32,8.19q0,15.84-37.92,15.84a57.1,57.1,0,0,1-23.4-4.54,39.63,39.63,0,0,1-15.93-12,51.16,51.16,0,0,1-11.22-32.22q0-22.43,14.51-35.87T485.5,61.6q24.75,0,36.32,17.45A36.2,36.2,0,0,1,527.87,99.25Zm-37.56,5.25q6.76,0,6.76-5.69A8,8,0,0,0,494,92.22q-3.12-2.49-8.9-2.49t-11.48,4.72q-5.7,4.71-5.7,10Z"/><path class="cls-1" d="M596.93,63.56q17.79,0,29.64,13.62t11.83,33.2V141.7a51.72,51.72,0,0,1-.26,6.15,14.76,14.76,0,0,1-1.52,4.54q-2.49,4.8-13.88,4.8-12.65,0-14.6-6.59a29,29,0,0,1-1.06-9.07V110.2q0-7.31-4.19-11.39t-11.21-4.1A15.56,15.56,0,0,0,580.29,99a15,15,0,0,0-4.36,11.21v31.5a51.25,51.25,0,0,1-.27,6.15,12.77,12.77,0,0,1-1.69,4.54q-2.33,4.8-13.71,4.8-11.21,0-13.7-4.8a16.46,16.46,0,0,1-1.52-4.72,51.53,51.53,0,0,1-.26-6.14v-63a49.74,49.74,0,0,1,.26-6A12.77,12.77,0,0,1,546.73,68q2.49-4.44,13.71-4.45,10.86,0,13.35,4.1a14.23,14.23,0,0,1,1.78,7.3,17.9,17.9,0,0,1,3.2-3.56,30.91,30.91,0,0,1,4.81-3.74A23.3,23.3,0,0,1,596.93,63.56Z"/><path class="cls-2" d="M710.67,95.07l-11.57-.71v24.56c0,3.2.5,5.52,1.51,6.94s2.91,2.14,5.7,2.14a57.21,57.21,0,0,1,6.41.27,12.47,12.47,0,0,1,4.71,1.69q4.1,2.31,4.1,11.92,0,11.22-5,13.71a16.57,16.57,0,0,1-4.71,1.51,49.32,49.32,0,0,1-6,.27q-18.51,0-28.12-8.37t-9.61-28.3V94.36a47.71,47.71,0,0,1-7.3.53,8.2,8.2,0,0,1-6.5-3q-2.58-3-2.58-10.33A45,45,0,0,1,652.64,71a9.68,9.68,0,0,1,2.49-4.72,11,11,0,0,1,7.12-2.31l5.88.71V46.3a48.69,48.69,0,0,1,.27-6A11.12,11.12,0,0,1,670.09,36q2.31-4.44,13.7-4.45,12.11,0,14.42,6.59a33.4,33.4,0,0,1,.89,9.08V64.63q7.83-.7,11.84-.71a50.15,50.15,0,0,1,6,.27,14.11,14.11,0,0,1,4.72,1.69q4.62,2.31,4.62,13.7,0,11.22-4.8,13.71a16.63,16.63,0,0,1-4.72,1.51A51.06,51.06,0,0,1,710.67,95.07Z"/><path class="cls-2" d="M805.19,64.63a12,12,0,0,1,5.6,3.65Q813,70.86,813,76.56A28.2,28.2,0,0,1,809.64,89q-3.39,6.77-9.79,6.76a13.85,13.85,0,0,1-6.14-1.42A17.87,17.87,0,0,0,786,92.93a14.07,14.07,0,0,0-9,3.38,10.24,10.24,0,0,0-4.18,8.19v37.38a51.06,51.06,0,0,1-.27,6.14,14,14,0,0,1-1.69,4.72q-2.67,4.63-13.88,4.63-8.55,0-12.28-3-2.85-2.49-3.21-7.65V79.05a51.06,51.06,0,0,1,.27-6.14,14.63,14.63,0,0,1,1.51-4.54q2.49-4.8,13.89-4.81,10.68,0,13.35,4.1a10.27,10.27,0,0,1,2,5.87,28.35,28.35,0,0,1,2.58-3q1.68-1.79,7.21-4.81t9.7-3a46.19,46.19,0,0,1,7,.45A43.93,43.93,0,0,1,805.19,64.63Z"/><path class="cls-2" d="M913.23,99.25q0,10.95-5.43,16.2t-12,5.25H853.6q0,5,5.88,8.37a23.38,23.38,0,0,0,11.74,3.38q10.32,0,16.2-2.14l2-.71a18.05,18.05,0,0,1,7.12-2q5.7,0,9.79,8a19.72,19.72,0,0,1,2.31,8.19q0,15.84-37.91,15.84a57.15,57.15,0,0,1-23.41-4.54,39.77,39.77,0,0,1-15.93-12,51.21,51.21,0,0,1-11.21-32.22q0-22.43,14.5-35.87T870.87,61.6q24.74,0,36.31,17.45A36.2,36.2,0,0,1,913.23,99.25Zm-37.56,5.25q6.76,0,6.77-5.69a8,8,0,0,0-3.12-6.59c-2.08-1.66-5-2.49-8.9-2.49s-7.68,1.57-11.48,4.72-5.7,6.49-5.7,10Z"/><path class="cls-2" d="M1020.56,99.25q0,10.95-5.42,16.2t-12,5.25H960.93q0,5,5.88,8.37a23.39,23.39,0,0,0,11.75,3.38q10.32,0,16.19-2.14l2-.71a18.05,18.05,0,0,1,7.12-2q5.7,0,9.79,8a19.75,19.75,0,0,1,2.32,8.19q0,15.84-37.92,15.84a57.18,57.18,0,0,1-23.41-4.54,39.77,39.77,0,0,1-15.93-12,51.21,51.21,0,0,1-11.21-32.22Q927.47,88.48,942,75T978.2,61.6q24.74,0,36.31,17.45A36.2,36.2,0,0,1,1020.56,99.25ZM983,104.5q6.75,0,6.76-5.69a8,8,0,0,0-3.12-6.59c-2.07-1.66-5-2.49-8.89-2.49s-7.69,1.57-11.49,4.72-5.69,6.49-5.69,10Z"/><path class="cls-3" d="M87.93,93.25,70.82,110.47V87.6H61.59v22.82L48,96.4l-6.52,6.52,20.11,20.76v34.25h9.23V123.55l23.65-23.8Z"/><path class="cls-4" d="M87.93,93.25,70.82,110.47V87.6H66.21v70.33h4.61V123.55l23.65-23.8Z"/><path class="cls-2" d="M66.21,94.32A47.16,47.16,0,0,1,66.21,0C92.25,0,92.25,94.32,66.21,94.32Z"/><path class="cls-5" d="M66.21,0V94.32A47.16,47.16,0,0,0,66.21,0Z"/><circle class="cls-2" cx="113.13" cy="76.02" r="33.62"/><path class="cls-5" d="M113.13,42.4v67.24a33.62,33.62,0,1,0,0-67.24Z"/><path class="cls-2" d="M27.55,109.12a27.56,27.56,0,0,1,0-55.11C42.77,54,42.77,109.12,27.55,109.12Z"/><path class="cls-5" d="M27.55,54v55.11a27.56,27.56,0,0,0,0-55.11Z"/><path class="cls-3" d="M35.12,82.88,28.49,89.3,45.43,107,52,100.48Z"/></g></g></svg>