<svg xmlns="http://www.w3.org/2000/svg" viewBox="0 0 842.11 453.02"><defs><style>.cls-1{fill:#71b4d6;}.cls-2{fill:#659b5e;}.cls-3{fill:#6d4d2c;}.cls-4{fill:#3d2b19;}.cls-5{fill:#a9c991;}</style></defs><title>title_with_tree</title><g id="Layer_2" data-name="Layer 2"><g id="letters"><path class="cls-1" d="M59.27,357.08q12.28,0,14.42,6.76a30.38,30.38,0,0,1,1.07,8.9,27.29,27.29,0,0,1-1.16,8.81A8.33,8.33,0,0,1,70,386.27q-3.74,2.13-10.85,2.13l-11.4-.71v47.7q0,6.78-1.69,10.06a8.34,8.34,0,0,1-5.16,4.36,31.33,31.33,0,0,1-9,1.07,27.06,27.06,0,0,1-8.81-1.16A8.2,8.2,0,0,1,18.33,446a13.46,13.46,0,0,1-1.69-4.72,54,54,0,0,1-.26-6.23V387.87H10c-3.09-.24-5.28-.95-6.59-2.14Q0,382.36,0,372.74q0-14.6,10.5-14.6h5.88v-9.43q0-13.71,9.79-24.83t28.3-11.13a51.17,51.17,0,0,1,6.14.27,14.34,14.34,0,0,1,4.72,1.69q4.8,2.31,4.8,13.71,0,8.54-3,12.28-2.51,2.85-7.84,3.2h-5c-4.39,0-6.59,1.49-6.59,4.45v9.79ZM84,328.42a51.53,51.53,0,0,1,.26-6.14A14.26,14.26,0,0,1,86,317.56q2.31-4.81,13.71-4.81,10.86,0,13.53,4.81a14.2,14.2,0,0,1,1.69,4.81,53.5,53.5,0,0,1,.27,6.23V411q0,6.4,1.06,8.1T121,420.8a28.35,28.35,0,0,1,4.9.27,10.58,10.58,0,0,1,3.2,1.51q3.38,2.31,3.38,12.64,0,11.2-3.38,13.7-4.8,3.21-22.25,1.07-13.71-1.77-18-9.08Q84,432.2,84,413.14Z"/><path class="cls-1" d="M187.43,450.35a37.82,37.82,0,0,1-29.81-13.62q-11.85-13.62-11.84-33.2V372.38a51,51,0,0,1,.27-6.23,16.87,16.87,0,0,1,1.51-4.63q2.49-4.8,13.88-4.8,12.47,0,14.6,6.76,1.07,2.85,1.07,9.08v31.15q0,7.31,4.18,11.39t11.22,4.1a15.63,15.63,0,0,0,11.39-4.27,15,15,0,0,0,4.36-11.22v-31.5a51.37,51.37,0,0,1,.27-6.15,14.07,14.07,0,0,1,1.69-4.71q2.31-4.64,13.7-4.63,11.22,0,13.71,4.8a16.72,16.72,0,0,1,1.51,4.72,51.17,51.17,0,0,1,.27,6.14v63a49.09,49.09,0,0,1-.27,6,12.7,12.7,0,0,1-1.69,4.54q-2.67,4.62-13.71,4.62-10.85,0-13.34-4.27a14.11,14.11,0,0,1-1.79-7.3,17.87,17.87,0,0,1-3.2,3.57,43.33,43.33,0,0,1-4.81,3.91A23.76,23.76,0,0,1,187.43,450.35Z"/><path class="cls-1" d="M349.41,392.59c0,7.29-1.81,12.7-5.43,16.19S336.36,414,332,414H289.78q0,5,5.87,8.36a23.34,23.34,0,0,0,11.75,3.38q10.32,0,16.2-2.13l2-.71a17.88,17.88,0,0,1,7.12-2q5.7,0,9.79,8a19.64,19.64,0,0,1,2.31,8.19q0,15.84-37.91,15.84a57.31,57.31,0,0,1-23.41-4.54q-10.23-4.55-15.93-12a51.2,51.2,0,0,1-11.21-32.21q0-22.44,14.5-35.87t36.23-13.44q24.74,0,36.31,17.44A36.23,36.23,0,0,1,349.41,392.59Zm-37.56,5.25q6.76,0,6.77-5.7a8,8,0,0,0-3.12-6.58c-2.08-1.67-5-2.5-8.9-2.5s-7.68,1.58-11.48,4.72-5.7,6.5-5.7,10.06Z"/><path class="cls-1" d="M418.47,356.9q17.8,0,29.64,13.61T460,403.71V435a51.06,51.06,0,0,1-.27,6.14,14.54,14.54,0,0,1-1.51,4.54q-2.51,4.8-13.89,4.8-12.63,0-14.59-6.58a29,29,0,0,1-1.07-9.08V403.53q0-7.29-4.18-11.39t-11.22-4.09a15.57,15.57,0,0,0-11.39,4.27,15,15,0,0,0-4.36,11.21V435a51.06,51.06,0,0,1-.27,6.14,12.64,12.64,0,0,1-1.69,4.54q-2.31,4.8-13.7,4.8-11.22,0-13.71-4.8a16.53,16.53,0,0,1-1.51-4.72,51.06,51.06,0,0,1-.27-6.14v-63a49,49,0,0,1,.27-6,12.64,12.64,0,0,1,1.69-4.54q2.49-4.46,13.7-4.45,10.86,0,13.35,4.09a14.13,14.13,0,0,1,1.78,7.3,18,18,0,0,1,3.21-3.56,31.49,31.49,0,0,1,4.8-3.74A23.33,23.33,0,0,1,418.47,356.9Z"/><path class="cls-2" d="M532.21,388.4l-11.57-.71v24.56c0,3.21.51,5.52,1.52,6.95s2.9,2.13,5.69,2.13a57.09,57.09,0,0,1,6.41.27,12.75,12.75,0,0,1,4.72,1.69q4.1,2.32,4.09,11.93,0,11.2-5,13.7a16.37,16.37,0,0,1-4.72,1.52,51.64,51.64,0,0,1-6,.26q-18.53,0-28.13-8.36T489.67,414V387.69a46.34,46.34,0,0,1-7.3.54,8.16,8.16,0,0,1-6.49-3q-2.58-3-2.58-10.33a44.49,44.49,0,0,1,.89-10.59,9.48,9.48,0,0,1,2.49-4.71,10.94,10.94,0,0,1,7.12-2.32l5.87.72V339.63a48.8,48.8,0,0,1,.27-6.05,11.18,11.18,0,0,1,1.69-4.27q2.31-4.46,13.71-4.45,12.09,0,14.41,6.58a33,33,0,0,1,.89,9.08V358q7.83-.72,11.84-.72a50,50,0,0,1,6,.27,14.26,14.26,0,0,1,4.72,1.69q4.62,2.31,4.63,13.71,0,11.2-4.81,13.7a16.59,16.59,0,0,1-4.72,1.52A53.78,53.78,0,0,1,532.21,388.4Z"/><path class="cls-2" d="M626.73,358a12.14,12.14,0,0,1,5.61,3.64c1.48,1.73,2.22,4.48,2.22,8.28a28.2,28.2,0,0,1-3.38,12.46q-3.37,6.76-9.79,6.77a13.93,13.93,0,0,1-6.14-1.43,17.87,17.87,0,0,0-7.74-1.42,14.05,14.05,0,0,0-9,3.38,10.18,10.18,0,0,0-4.18,8.19v37.38a51.06,51.06,0,0,1-.27,6.14,14.41,14.41,0,0,1-1.69,4.72q-2.67,4.62-13.89,4.62-8.54,0-12.28-3-2.85-2.49-3.2-7.66V372.38a53.9,53.9,0,0,1,.26-6.14,14.76,14.76,0,0,1,1.52-4.54q2.49-4.8,13.88-4.8,10.68,0,13.35,4.09a10.23,10.23,0,0,1,2,5.88,29.32,29.32,0,0,1,2.58-3q1.7-1.79,7.21-4.81t9.7-3a47.59,47.59,0,0,1,7,.44A42.12,42.12,0,0,1,626.73,358Z"/><path class="cls-2" d="M734.77,392.59c0,7.29-1.81,12.7-5.42,16.19s-7.63,5.26-12,5.26H675.15q0,5,5.87,8.36a23.32,23.32,0,0,0,11.75,3.38q10.32,0,16.2-2.13l1.95-.71a17.88,17.88,0,0,1,7.12-2q5.7,0,9.79,8a19.68,19.68,0,0,1,2.32,8.19q0,15.84-37.92,15.84a57.26,57.26,0,0,1-23.4-4.54q-10.25-4.55-15.93-12a51.15,51.15,0,0,1-11.22-32.21q0-22.44,14.51-35.87t36.22-13.44q24.74,0,36.31,17.44A36.15,36.15,0,0,1,734.77,392.59Zm-37.55,5.25q6.76,0,6.76-5.7a8,8,0,0,0-3.11-6.58q-3.12-2.51-8.9-2.5t-11.49,4.72q-5.68,4.73-5.69,10.06Z"/><path class="cls-2" d="M842.11,392.59c0,7.29-1.81,12.7-5.43,16.19s-7.63,5.26-12,5.26H782.48q0,5,5.87,8.36a23.32,23.32,0,0,0,11.75,3.38q10.32,0,16.2-2.13l2-.71a17.84,17.84,0,0,1,7.12-2q5.68,0,9.79,8a19.64,19.64,0,0,1,2.31,8.19q0,15.84-37.91,15.84a57.28,57.28,0,0,1-23.41-4.54q-10.24-4.55-15.93-12A51.15,51.15,0,0,1,749,404.25q0-22.44,14.51-35.87t36.22-13.44q24.75,0,36.32,17.44A36.23,36.23,0,0,1,842.11,392.59Zm-37.56,5.25q6.76,0,6.76-5.7a8,8,0,0,0-3.11-6.58q-3.12-2.51-8.9-2.5t-11.48,4.72q-5.7,4.73-5.7,10.06Z"/></g><g id="tree"><path class="cls-3" d="M474.7,172.35l-31.63,31.82V161.89H426v42.19L400.9,178.16l-12.06,12.05L426,228.57v63.31h17.05V228.34l43.72-44Z"/><path class="cls-4" d="M474.7,172.35l-31.63,31.82V161.89h-8.53v130h8.53V228.34l43.72-44Z"/><path class="cls-2" d="M434.54,174.32A87.16,87.16,0,0,1,434.54,0C482.68,0,482.68,174.32,434.54,174.32Z"/><path class="cls-5" d="M434.54,0V174.32A87.16,87.16,0,1,0,434.54,0Z"/><circle class="cls-2" cx="521.26" cy="140.5" r="62.13"/><path class="cls-5" d="M521.26,78.36V202.63a62.14,62.14,0,1,0,0-124.27Z"/><path class="cls-2" d="M363.1,201.66a50.92,50.92,0,1,1,0-101.83C391.23,99.83,391.22,201.66,363.1,201.66Z"/><path class="cls-5" d="M363.1,99.83V201.66a50.92,50.92,0,1,0,0-101.83Z"/><path class="cls-3" d="M377.08,153.18,364.84,165l31.31,32.71,12.06-12.05Z"/></g></g></svg>